<?xml version="1.0" encoding="UTF-8"?><svg id="Layer_1" 
xmlns="http://www.w3.org/2000/svg" viewBox="0 0 192 139.5"><path 
d="m0,94.66c0,24.76,19.35,44.84,43.2,44.84h110.4c21.21,0,38.4-17.84,38.4-39.86,0-19.27-13.2-35.37-30.72-39.05,1.23-3.33,1.92-6.97,1.92-10.77,0-16.5-12.9-29.89-28.8-29.89-5.91,0-11.43,1.87-15.99,5.04C110.1,10.03,94.59,0,76.8,0,50.28,0,28.8,22.3,28.8,49.82c0,.84.03,1.68.06,2.52C12.06,58.48,0,75.11,0,94.66Z" 
style="fill:#170034; stroke-width:0px;"/><path 
d="m134.51,38.62c1.48,1.05,2.36,2.74,2.36,4.52v59.06c0,7.77-7.87,14.06-17.58,14.06s-17.58-6.29-17.58-14.06,7.87-14.06,17.58-14.06c2.05,0,4.03.28,5.86.81v-25.59l-46.88,13.5v36.59c0,7.77-7.87,14.06-17.58,14.06s-17.58-6.29-17.58-14.06,7.87-14.06,17.58-14.06c2.05,0,4.03.28,5.86.81v-40.18c0-2.48,1.7-4.68,4.17-5.4l58.59-16.87c1.78-.51,3.7-.19,5.18.88Z" 
style="fill:#fe0191; stroke-width:0px;"/></svg>
