<?xml version="1.0" encoding="utf-8"?>
<!-- Generator: Adobe Illustrator 26.0.3, SVG Export Plug-In . SVG Version: 6.00 Build 0)  -->
<svg version="1.1" xmlns="http://www.w3.org/2000/svg" xmlns:xlink="http://www.w3.org/1999/xlink" x="0px" y="0px"
	 viewBox="0 0 640 512" style="enable-background:new 0 0 640 512;" xml:space="preserve">
<style type="text/css">
	.st0{fill:#66C7F4;}
</style>
<g id="Layer_1">
	<path class="st0" d="M537.6,226.6c4.1-10.7,6.4-22.4,6.4-34.6c0-53-43-96-96-96c-19.7,0-38.1,6-53.3,16.2C367,64.2,315.3,32,256,32
		c-88.4,0-160,71.6-160,160c0,2.7,0.1,5.4,0.2,8.1C40.2,219.8,0,273.2,0,336c0,79.5,64.5,144,144,144h368c70.7,0,128-57.3,128-128
		C640,290.1,596,238.4,537.6,226.6z"/>
</g>
<g id="Layer_2">
	<path d="M451,167.5c0-13.2-13.1-22.6-25.9-18.6l-199.4,57.6c-8.3,2.6-14,10.1-14,18.6v159.3c-6.3-1.5-12.9-2.4-19.9-2.4
		c-33,0-59.8,17.5-59.8,39c0,21.5,26.8,39,59.8,39s59.8-17.5,59.8-39V278.6l159.5-45.7v112.5c-6.3-1.5-12.9-2.4-19.9-2.4
		c-33,0-59.8,17.5-59.8,39c0,21.5,26.8,39,59.8,39s59.8-17.5,59.8-39L451,167.5L451,167.5z"/>
</g>
</svg>
